<?xml version="1.0" encoding="utf-8"?>
<!-- Generator: Adobe Illustrator 23.0.0, SVG Export Plug-In . SVG Version: 6.00 Build 0)  -->
<svg version="1.1" id="Layer_1" xmlns="http://www.w3.org/2000/svg" xmlns:xlink="http://www.w3.org/1999/xlink" x="0px" y="0px"
	 width="40px" height="40px" viewBox="0 0 40 40" enable-background="new 0 0 40 40" xml:space="preserve">
<path fill="#EFC75E" d="M13.2,27.4c1.6,1.6,1.6,4.2,0,5.7c-1.6,1.6-6.2,3.6-7.8,2.1s0.5-6.2,2.1-7.8C9,25.8,11.6,25.8,13.2,27.4z"/>
	<path fill="#DEB957" d="M8.5,26.6v0.2c0,2.9,2.4,5.3,5.3,5.3h0.1c0.8-1.5,0.5-3.4-0.8-4.7C11.9,26.1,10,25.9,8.5,26.6z"/>
	<path fill="#D54FF2" d="M21.5,18.5c4.8,4.8,5.8,11.6,1.2,16.2l-2.2,2.2c-4.6,4.6-1.4-6.4-6.2-11.2s-15.8-1.6-11.2-6.2l2.2-2.2
	C9.8,12.8,16.7,13.7,21.5,18.5L21.5,18.5z"/>
	<path fill="#F4F0D3" d="M37.4,2.6c1.5,1.5,0.8,10.7-8.2,19.8c-5.9,5.8-9.5,7.9-9.5,7.9c-3.9,2.6-5.8,0.8-8.3-1.6s-4.3-4.4-1.6-8.3
	c0,0,2.1-3.7,7.9-9.6C26.7,1.8,35.9,1.1,37.4,2.6L37.4,2.6z"/>
	<path fill="#E8E4C8" d="M21.2,29c-4.1,2.7-6,0.9-8.6-1.7c-2.6-2.6-4.5-4.5-1.7-8.6l0.4-0.7c-1.1,1.5-1.6,2.3-1.6,2.3
	c-2.7,3.9-0.8,5.8,1.6,8.3s4.4,4.2,8.3,1.6c0,0,1.7-1,4.8-3.5C22.4,28.3,21.2,29,21.2,29z"/>
	<path fill="#8BA0AB" d="M28,12c1.4,1.4,1.4,3.6,0,5c-1.4,1.4-3.6,1.4-5,0c-1.4-1.4-1.4-3.6,0-5S26.6,10.7,28,12z"/>
	<path fill="#D54FF2" d="M19.8,20.8c0.7,0.7-0.6,3.2-4.1,6.6s-5.5,4.4-6.2,3.6c-0.7-0.7,0.2-2.8,3.6-6.2C16.6,21.4,19.1,20,19.8,20.8
	z"/>
	<path fill="#324D5B" d="M25.5,11.8c0.7,0,1.4,0.3,1.9,0.8c0.5,0.5,0.8,1.2,0.8,1.9s-0.3,1.4-0.8,1.9c-0.5,0.5-1.2,0.8-1.9,0.8
	c-0.7,0-1.4-0.3-1.9-0.8c-0.5-0.5-0.8-1.2-0.8-1.9s0.3-1.4,0.8-1.9C24.1,12.1,24.8,11.8,25.5,11.8 M25.5,11c-0.9,0-1.8,0.3-2.5,1
	c-1.4,1.4-1.4,3.6,0,5c0.7,0.7,1.6,1,2.5,1s1.8-0.3,2.5-1c1.4-1.4,1.4-3.6,0-5C27.3,11.3,26.4,11,25.5,11z"/>
	<path fill="#D54FF2" d="M28.8,3.3c0.3,1.9,1.3,3.9,2.9,5.5c1.5,1.4,3.2,2.4,4.8,2.8c1.9-4.6,1.7-8.2,0.9-9
	C36.6,1.8,33.2,1.6,28.8,3.3z"/>
</svg>
