<?xml version="1.0" encoding="utf-8"?>
<!-- Generator: Adobe Illustrator 23.0.0, SVG Export Plug-In . SVG Version: 6.00 Build 0)  -->
<svg version="1.1" id="Layer_1" xmlns="http://www.w3.org/2000/svg" xmlns:xlink="http://www.w3.org/1999/xlink" x="0px" y="0px"
	 width="16px" height="16px" viewBox="0 0 16 16" style="enable-background:new 0 0 16 16;" xml:space="preserve">
<style type="text/css">
	.st0{fill:#EFC75E;}
	.st1{fill:#DEB957;}
	.st2{fill:#D54FF2;}
	.st3{fill:#F4F0D3;}
	.st4{fill:#E8E4C8;}
	.st5{fill:#8BA0AB;}
	.st6{fill:#324D5B;}
</style>
<path class="st0" d="M5.4,10.9c0.6,0.6,0.6,1.6,0,2.2c-0.6,0.6-2.4,1.4-3,0.8c-0.6-0.6,0.2-2.4,0.8-3C3.7,10.2,4.7,10.2,5.4,10.9z"
	/>
<path class="st1" d="M3.5,10.6L3.5,10.6c0,1.2,0.9,2.1,2.1,2.1h0c0.3-0.6,0.2-1.3-0.3-1.8C4.9,10.4,4.1,10.3,3.5,10.6z"/>
<path class="st2" d="M8.6,7.4c1.9,1.9,2.3,4.5,0.5,6.3l-0.9,0.9c-1.8,1.8-0.5-2.5-2.4-4.4s-6.1-0.6-4.4-2.4l0.9-0.9
	C4,5.2,6.7,5.5,8.6,7.4L8.6,7.4z"/>
<path class="st3" d="M14.8,1.2c0.6,0.6,0.3,4.2-3.2,7.7C9.3,11.2,7.9,12,7.9,12c-1.5,1-2.3,0.3-3.2-0.6C3.7,10.4,3,9.7,4,8.2
	c0,0,0.8-1.4,3.1-3.7C10.6,0.9,14.2,0.6,14.8,1.2L14.8,1.2z"/>
<path class="st4" d="M8.5,11.5c-1.6,1-2.3,0.3-3.3-0.7S3.4,9.1,4.5,7.5l0.2-0.3C4.2,7.8,4,8.1,4,8.1c-1,1.5-0.3,2.3,0.6,3.2
	S6.3,13,7.8,12c0,0,0.7-0.4,1.9-1.4C8.9,11.2,8.5,11.5,8.5,11.5z"/>
<path class="st5" d="M11.1,4.9c0.5,0.5,0.5,1.4,0,1.9s-1.4,0.5-1.9,0s-0.5-1.4,0-1.9S10.6,4.4,11.1,4.9z"/>
<path class="st2" d="M7.9,8.3c0.3,0.3-0.2,1.2-1.6,2.6s-2.1,1.7-2.4,1.4C3.7,12,4,11.2,5.3,9.9C6.7,8.5,7.7,8,7.9,8.3z"/>
<path class="st6" d="M10.1,4.8c0.3,0,0.5,0.1,0.7,0.3s0.3,0.5,0.3,0.7s-0.1,0.5-0.3,0.7c-0.2,0.2-0.5,0.3-0.7,0.3
	c-0.3,0-0.5-0.1-0.7-0.3C9.2,6.4,9.1,6.1,9.1,5.9s0.1-0.5,0.3-0.7S9.9,4.8,10.1,4.8 M10.1,4.5c-0.3,0-0.7,0.1-1,0.4
	c-0.5,0.5-0.5,1.4,0,1.9c0.3,0.3,0.6,0.4,1,0.4c0.3,0,0.7-0.1,1-0.4c0.5-0.5,0.5-1.4,0-1.9C10.8,4.6,10.5,4.5,10.1,4.5z"/>
<path class="st2" d="M11.4,1.5c0.1,0.7,0.5,1.5,1.1,2.1c0.6,0.5,1.2,0.9,1.9,1.1c0.7-1.8,0.7-3.2,0.3-3.5
	C14.5,0.9,13.1,0.8,11.4,1.5z"/>
</svg>
